%
M48
M72
T01C0.02400
T02C0.04000
%
T01
X19718Y15250
X23018Y11750
X23018Y29250
X38218Y46950
X51518Y45450
X55318Y51850
X65318Y45050
X69218Y57250
X68718Y63850
X72218Y67150
X68818Y70550
X74318Y73850
X59018Y72250
X54018Y76550
X47418Y73950
X46818Y78750
X47418Y68750
X52418Y63850
X59018Y61950
X59018Y67450
X79818Y53350
X50118Y20050
X44718Y14650
X75418Y13150
X35418Y64750
X25818Y64750
X18418Y70450
X35418Y74350
X119218Y126250
X122518Y122750
X122518Y140250
X137718Y157950
X151018Y156450
X154818Y162850
X158518Y172950
X158518Y178450
X158518Y183250
X153518Y187550
X146918Y184950
X146918Y179750
X151918Y174850
X146318Y189750
X134918Y185350
X134918Y175750
X125318Y175750
X117918Y181450
X164818Y156050
X168718Y168250
X168218Y174850
X171718Y178150
X168318Y181550
X173818Y184850
X179318Y164350
X149618Y131050
X144218Y125650
X174918Y124150
T02
X9618Y8550
X9618Y18550
X9618Y28550
X9618Y38550
X9618Y48550
X9618Y58550
X9618Y68550
X9618Y78550
X90618Y78550
X90618Y68550
X90618Y58550
X90618Y48550
X90618Y38550
X90618Y28550
X90618Y18550
X90618Y8550
X180618Y5050
X180618Y15050
X190618Y15050
X190618Y5050
X190118Y119550
X190118Y129550
X190118Y139550
X190118Y149550
X190118Y159550
X190118Y169550
X190118Y179550
X190118Y189550
X109118Y189550
X109118Y179550
X109118Y169550
X109118Y159550
X109118Y149550
X109118Y139550
X109118Y129550
X109118Y119550
X18500Y164152
X8500Y164152
X8500Y174152
X18500Y174152
M30
