G75*
%MOIN*%
%OFA0B0*%
%FSLAX25Y25*%
%IPPOS*%
%LPD*%
%AMOC8*
5,1,8,0,0,1.08239X$1,22.5*
%
%ADD10C,0.00000*%
%ADD11C,0.00200*%
%ADD12C,0.01600*%
%ADD13C,0.00600*%
%ADD14C,0.00500*%
D10*
X0001118Y0001050D02*
X0197969Y0001050D01*
X0197969Y0197900D01*
X0001118Y0197900D01*
X0001118Y0001050D01*
X0197969Y0001050D01*
X0197969Y0197900D01*
X0001020Y0197959D01*
X0001118Y0001050D01*
X0001618Y0001550D02*
X0001618Y0086550D01*
X0098118Y0086550D01*
X0098118Y0001550D01*
X0001618Y0001550D01*
X0101118Y0112550D02*
X0101118Y0197550D01*
X0197618Y0197550D01*
X0197618Y0112550D01*
X0101118Y0112550D01*
X0173618Y0038261D02*
X0173618Y0001550D01*
X0197569Y0001550D01*
X0197569Y0038261D01*
X0173618Y0038261D01*
X0025451Y0160652D02*
X0025451Y0197363D01*
X0001500Y0197363D01*
X0001500Y0160652D01*
X0025451Y0160652D01*
D11*
X0019799Y0182303D02*
X0019799Y0183504D01*
X0020400Y0182903D02*
X0019199Y0182903D01*
X0018558Y0182303D02*
X0018258Y0182002D01*
X0017658Y0182002D01*
X0017357Y0182303D01*
X0017357Y0182603D01*
X0017658Y0182903D01*
X0017958Y0182903D01*
X0017658Y0182903D02*
X0017357Y0183203D01*
X0017357Y0183504D01*
X0017658Y0183804D01*
X0018258Y0183804D01*
X0018558Y0183504D01*
X0016717Y0182303D02*
X0016417Y0182303D01*
X0016417Y0182002D01*
X0016717Y0182002D01*
X0016717Y0182303D01*
X0015796Y0182303D02*
X0015496Y0182002D01*
X0014895Y0182002D01*
X0014595Y0182303D01*
X0014595Y0182603D01*
X0014895Y0182903D01*
X0015196Y0182903D01*
X0014895Y0182903D02*
X0014595Y0183203D01*
X0014595Y0183504D01*
X0014895Y0183804D01*
X0015496Y0183804D01*
X0015796Y0183504D01*
X0013955Y0183804D02*
X0013955Y0182603D01*
X0013354Y0182002D01*
X0012753Y0182603D01*
X0012753Y0183804D01*
X0010083Y0183804D02*
X0010083Y0182603D01*
X0009483Y0182002D01*
X0008882Y0182603D01*
X0008882Y0183804D01*
X0008242Y0182903D02*
X0007941Y0183203D01*
X0007341Y0183203D01*
X0007041Y0182903D01*
X0007041Y0182303D01*
X0007341Y0182002D01*
X0007941Y0182002D01*
X0008242Y0182303D01*
X0008242Y0182903D01*
X0007816Y0192752D02*
X0007516Y0193053D01*
X0007516Y0194254D01*
X0007816Y0194554D01*
X0008717Y0194554D01*
X0008717Y0192752D01*
X0007816Y0192752D01*
X0009357Y0192752D02*
X0009357Y0194554D01*
X0010558Y0194554D02*
X0009357Y0192752D01*
X0010558Y0192752D02*
X0010558Y0194554D01*
X0011199Y0194254D02*
X0011499Y0194554D01*
X0012100Y0194554D01*
X0012400Y0194254D01*
X0012400Y0193053D01*
X0012100Y0192752D01*
X0011499Y0192752D01*
X0011199Y0193053D01*
X0011199Y0193653D01*
X0011799Y0193653D01*
X0015516Y0193053D02*
X0015516Y0194254D01*
X0015816Y0194554D01*
X0016717Y0194554D01*
X0016717Y0192752D01*
X0015816Y0192752D01*
X0015516Y0193053D01*
X0017357Y0192752D02*
X0017357Y0194554D01*
X0018558Y0194554D02*
X0017357Y0192752D01*
X0018558Y0192752D02*
X0018558Y0194554D01*
X0019199Y0194254D02*
X0019499Y0194554D01*
X0020100Y0194554D01*
X0020400Y0194254D01*
X0020400Y0193053D01*
X0020100Y0192752D01*
X0019499Y0192752D01*
X0019199Y0193053D01*
X0019199Y0193653D01*
X0019799Y0193653D01*
X0127125Y0174985D02*
X0127125Y0174518D01*
X0127592Y0174051D01*
X0128526Y0174051D01*
X0128993Y0174518D01*
X0128993Y0174985D01*
X0128526Y0175452D01*
X0127592Y0175452D01*
X0127125Y0174985D01*
X0127592Y0174051D02*
X0127125Y0173584D01*
X0127125Y0173117D01*
X0127592Y0172650D01*
X0128526Y0172650D01*
X0128993Y0173117D01*
X0128993Y0173584D01*
X0128526Y0174051D01*
X0129887Y0172650D02*
X0131756Y0172650D01*
X0130822Y0172650D02*
X0130822Y0175452D01*
X0131756Y0174518D01*
X0132650Y0174985D02*
X0133117Y0175452D01*
X0134051Y0175452D01*
X0134518Y0174985D01*
X0134518Y0173117D01*
X0134051Y0172650D01*
X0133117Y0172650D01*
X0132650Y0173117D01*
X0132756Y0183150D02*
X0130887Y0183150D01*
X0129993Y0183150D02*
X0128125Y0183150D01*
X0129059Y0183150D02*
X0129059Y0185952D01*
X0129993Y0185018D01*
X0130887Y0185018D02*
X0130887Y0185485D01*
X0131355Y0185952D01*
X0132289Y0185952D01*
X0132756Y0185485D01*
X0133650Y0185485D02*
X0134117Y0185952D01*
X0135051Y0185952D01*
X0135518Y0185485D01*
X0135518Y0183617D01*
X0135051Y0183150D01*
X0134117Y0183150D01*
X0133650Y0183617D01*
X0132756Y0183150D02*
X0130887Y0185018D01*
X0152797Y0155452D02*
X0152797Y0152650D01*
X0153731Y0152650D02*
X0151863Y0152650D01*
X0153731Y0154518D02*
X0152797Y0155452D01*
X0154625Y0155452D02*
X0156493Y0155452D01*
X0156493Y0152650D01*
X0157388Y0152650D02*
X0159256Y0152650D01*
X0159256Y0155452D01*
X0157388Y0155452D01*
X0156493Y0154051D02*
X0155559Y0154051D01*
X0158322Y0154051D02*
X0159256Y0154051D01*
X0160150Y0154051D02*
X0160617Y0153584D01*
X0162018Y0153584D01*
X0162018Y0152650D02*
X0162018Y0155452D01*
X0160617Y0155452D01*
X0160150Y0154985D01*
X0160150Y0154051D01*
X0161084Y0153584D02*
X0160150Y0152650D01*
X0165185Y0140256D02*
X0164718Y0139789D01*
X0164718Y0138855D01*
X0165185Y0138388D01*
X0164718Y0137494D02*
X0164718Y0135625D01*
X0164718Y0136559D02*
X0167520Y0136559D01*
X0166586Y0135625D01*
X0167053Y0134731D02*
X0167520Y0134264D01*
X0167520Y0133330D01*
X0167053Y0132863D01*
X0165185Y0132863D01*
X0164718Y0133330D01*
X0164718Y0134264D01*
X0165185Y0134731D01*
X0167053Y0138388D02*
X0167520Y0138855D01*
X0167520Y0139789D01*
X0167053Y0140256D01*
X0166586Y0140256D01*
X0166119Y0139789D01*
X0165652Y0140256D01*
X0165185Y0140256D01*
X0166119Y0139789D02*
X0166119Y0139322D01*
X0162018Y0126452D02*
X0160617Y0126452D01*
X0160150Y0125985D01*
X0160150Y0125051D01*
X0160617Y0124584D01*
X0162018Y0124584D01*
X0162018Y0123650D02*
X0162018Y0126452D01*
X0161084Y0124584D02*
X0160150Y0123650D01*
X0159256Y0124117D02*
X0158789Y0123650D01*
X0157855Y0123650D01*
X0157388Y0124117D01*
X0157388Y0125051D01*
X0157855Y0125518D01*
X0158322Y0125518D01*
X0159256Y0125051D01*
X0159256Y0126452D01*
X0157388Y0126452D01*
X0141018Y0126452D02*
X0141018Y0123650D01*
X0141018Y0124584D02*
X0139617Y0124584D01*
X0139150Y0125051D01*
X0139150Y0125985D01*
X0139617Y0126452D01*
X0141018Y0126452D01*
X0140084Y0124584D02*
X0139150Y0123650D01*
X0138256Y0125051D02*
X0136388Y0125051D01*
X0136855Y0123650D02*
X0136855Y0126452D01*
X0138256Y0125051D01*
X0138117Y0137150D02*
X0137650Y0137617D01*
X0138117Y0137150D02*
X0139051Y0137150D01*
X0139518Y0137617D01*
X0139518Y0139485D01*
X0139051Y0139952D01*
X0138117Y0139952D01*
X0137650Y0139485D01*
X0136756Y0139018D02*
X0135822Y0139952D01*
X0135822Y0137150D01*
X0136756Y0137150D02*
X0134888Y0137150D01*
X0133993Y0137150D02*
X0133993Y0137617D01*
X0132125Y0139485D01*
X0132125Y0139952D01*
X0133993Y0139952D01*
X0176912Y0115985D02*
X0176912Y0115518D01*
X0177379Y0115051D01*
X0176912Y0114584D01*
X0176912Y0114117D01*
X0177379Y0113650D01*
X0178313Y0113650D01*
X0178780Y0114117D01*
X0179675Y0113650D02*
X0181543Y0113650D01*
X0179675Y0115518D01*
X0179675Y0115985D01*
X0180142Y0116452D01*
X0181076Y0116452D01*
X0181543Y0115985D01*
X0182437Y0115985D02*
X0182904Y0116452D01*
X0183838Y0116452D01*
X0184305Y0115985D01*
X0184305Y0114117D01*
X0183838Y0113650D01*
X0182904Y0113650D01*
X0182437Y0114117D01*
X0178780Y0115985D02*
X0178313Y0116452D01*
X0177379Y0116452D01*
X0176912Y0115985D01*
X0177379Y0115051D02*
X0177846Y0115051D01*
X0178412Y0193150D02*
X0180280Y0193150D01*
X0178412Y0195018D01*
X0178412Y0195485D01*
X0178879Y0195952D01*
X0179813Y0195952D01*
X0180280Y0195485D01*
X0181175Y0195485D02*
X0181642Y0195952D01*
X0182576Y0195952D01*
X0183043Y0195485D01*
X0183937Y0195485D02*
X0184404Y0195952D01*
X0185338Y0195952D01*
X0185805Y0195485D01*
X0185805Y0193617D01*
X0185338Y0193150D01*
X0184404Y0193150D01*
X0183937Y0193617D01*
X0183043Y0193150D02*
X0181175Y0195018D01*
X0181175Y0195485D01*
X0181175Y0193150D02*
X0183043Y0193150D01*
X0083076Y0084952D02*
X0083543Y0084485D01*
X0083543Y0082617D01*
X0083076Y0082150D01*
X0082142Y0082150D01*
X0081675Y0082617D01*
X0080780Y0082617D02*
X0080780Y0082150D01*
X0080780Y0082617D02*
X0078912Y0084485D01*
X0078912Y0084952D01*
X0080780Y0084952D01*
X0081675Y0084485D02*
X0082142Y0084952D01*
X0083076Y0084952D01*
X0062518Y0044452D02*
X0061117Y0044452D01*
X0060650Y0043985D01*
X0060650Y0043051D01*
X0061117Y0042584D01*
X0062518Y0042584D01*
X0062518Y0041650D02*
X0062518Y0044452D01*
X0061584Y0042584D02*
X0060650Y0041650D01*
X0059756Y0041650D02*
X0057887Y0041650D01*
X0056993Y0041650D02*
X0056993Y0044452D01*
X0055125Y0044452D01*
X0054231Y0044452D02*
X0054231Y0043051D01*
X0053297Y0043518D01*
X0052830Y0043518D01*
X0052363Y0043051D01*
X0052363Y0042117D01*
X0052830Y0041650D01*
X0053764Y0041650D01*
X0054231Y0042117D01*
X0056059Y0043051D02*
X0056993Y0043051D01*
X0057887Y0044452D02*
X0059756Y0044452D01*
X0059756Y0041650D01*
X0059756Y0043051D02*
X0058822Y0043051D01*
X0054231Y0044452D02*
X0052363Y0044452D01*
X0051469Y0043985D02*
X0051469Y0042117D01*
X0049600Y0043985D01*
X0049600Y0042117D01*
X0050068Y0041650D01*
X0051002Y0041650D01*
X0051469Y0042117D01*
X0051469Y0043985D02*
X0051002Y0044452D01*
X0050068Y0044452D01*
X0049600Y0043985D01*
X0048706Y0043985D02*
X0048239Y0044452D01*
X0047305Y0044452D01*
X0046838Y0043985D01*
X0046838Y0043518D01*
X0048706Y0041650D01*
X0046838Y0041650D01*
X0045944Y0042117D02*
X0045477Y0041650D01*
X0044543Y0041650D01*
X0044076Y0042117D01*
X0044076Y0043051D01*
X0044543Y0043518D01*
X0045010Y0043518D01*
X0045944Y0043051D01*
X0045944Y0044452D01*
X0044076Y0044452D01*
X0039551Y0028952D02*
X0040018Y0028485D01*
X0040018Y0026617D01*
X0039551Y0026150D01*
X0038617Y0026150D01*
X0038150Y0026617D01*
X0037256Y0026150D02*
X0035388Y0028018D01*
X0035388Y0028485D01*
X0035855Y0028952D01*
X0036789Y0028952D01*
X0037256Y0028485D01*
X0038150Y0028485D02*
X0038617Y0028952D01*
X0039551Y0028952D01*
X0037256Y0026150D02*
X0035388Y0026150D01*
X0037355Y0015452D02*
X0036888Y0014985D01*
X0038756Y0013117D01*
X0038289Y0012650D01*
X0037355Y0012650D01*
X0036888Y0013117D01*
X0036888Y0014985D01*
X0037355Y0015452D02*
X0038289Y0015452D01*
X0038756Y0014985D01*
X0038756Y0013117D01*
X0039650Y0012650D02*
X0040584Y0013584D01*
X0040117Y0013584D02*
X0041518Y0013584D01*
X0041518Y0012650D02*
X0041518Y0015452D01*
X0040117Y0015452D01*
X0039650Y0014985D01*
X0039650Y0014051D01*
X0040117Y0013584D01*
X0057887Y0012650D02*
X0059756Y0012650D01*
X0060650Y0012650D02*
X0061584Y0013584D01*
X0061117Y0013584D02*
X0062518Y0013584D01*
X0062518Y0012650D02*
X0062518Y0015452D01*
X0061117Y0015452D01*
X0060650Y0014985D01*
X0060650Y0014051D01*
X0061117Y0013584D01*
X0059756Y0014518D02*
X0058822Y0015452D01*
X0058822Y0012650D01*
X0065685Y0024625D02*
X0065218Y0025092D01*
X0065218Y0026026D01*
X0065685Y0026494D01*
X0065218Y0027388D02*
X0065218Y0029256D01*
X0065218Y0028322D02*
X0068020Y0028322D01*
X0067086Y0027388D01*
X0067553Y0026494D02*
X0068020Y0026026D01*
X0068020Y0025092D01*
X0067553Y0024625D01*
X0065685Y0024625D01*
X0077879Y0005452D02*
X0077412Y0004985D01*
X0077412Y0004518D01*
X0077879Y0004051D01*
X0078813Y0004051D01*
X0079280Y0004518D01*
X0079280Y0004985D01*
X0078813Y0005452D01*
X0077879Y0005452D01*
X0077879Y0004051D02*
X0077412Y0003584D01*
X0077412Y0003117D01*
X0077879Y0002650D01*
X0078813Y0002650D01*
X0079280Y0003117D01*
X0079280Y0003584D01*
X0078813Y0004051D01*
X0080175Y0003117D02*
X0080642Y0002650D01*
X0081576Y0002650D01*
X0082043Y0003117D01*
X0082043Y0004985D01*
X0081576Y0005452D01*
X0080642Y0005452D01*
X0080175Y0004985D01*
X0034551Y0061650D02*
X0033617Y0061650D01*
X0033150Y0062117D01*
X0032256Y0062117D02*
X0031789Y0061650D01*
X0030855Y0061650D01*
X0030387Y0062117D01*
X0030387Y0062584D01*
X0030855Y0063051D01*
X0031322Y0063051D01*
X0030855Y0063051D02*
X0030387Y0063518D01*
X0030387Y0063985D01*
X0030855Y0064452D01*
X0031789Y0064452D01*
X0032256Y0063985D01*
X0033150Y0063985D02*
X0033617Y0064452D01*
X0034551Y0064452D01*
X0035018Y0063985D01*
X0035018Y0062117D01*
X0034551Y0061650D01*
X0034617Y0072150D02*
X0034150Y0072617D01*
X0034617Y0072150D02*
X0035551Y0072150D01*
X0036018Y0072617D01*
X0036018Y0074485D01*
X0035551Y0074952D01*
X0034617Y0074952D01*
X0034150Y0074485D01*
X0033256Y0073551D02*
X0031855Y0073551D01*
X0031387Y0073084D01*
X0031387Y0072617D01*
X0031855Y0072150D01*
X0032789Y0072150D01*
X0033256Y0072617D01*
X0033256Y0073551D01*
X0032322Y0074485D01*
X0031387Y0074952D01*
X0179159Y0023801D02*
X0179459Y0024101D01*
X0180059Y0024101D01*
X0180360Y0023801D01*
X0180360Y0023200D01*
X0180059Y0022900D01*
X0179459Y0022900D01*
X0179159Y0023200D01*
X0179159Y0023801D01*
X0181000Y0023501D02*
X0181000Y0024702D01*
X0182201Y0024702D02*
X0182201Y0023501D01*
X0181601Y0022900D01*
X0181000Y0023501D01*
X0184872Y0023501D02*
X0184872Y0024702D01*
X0186073Y0024702D02*
X0186073Y0023501D01*
X0185472Y0022900D01*
X0184872Y0023501D01*
X0186713Y0023501D02*
X0186713Y0023200D01*
X0187013Y0022900D01*
X0187614Y0022900D01*
X0187914Y0023200D01*
X0188535Y0023200D02*
X0188535Y0022900D01*
X0188835Y0022900D01*
X0188835Y0023200D01*
X0188535Y0023200D01*
X0189476Y0023200D02*
X0189776Y0022900D01*
X0190376Y0022900D01*
X0190677Y0023200D01*
X0190076Y0023801D02*
X0189776Y0023801D01*
X0189476Y0023501D01*
X0189476Y0023200D01*
X0189776Y0023801D02*
X0189476Y0024101D01*
X0189476Y0024401D01*
X0189776Y0024702D01*
X0190376Y0024702D01*
X0190677Y0024401D01*
X0191317Y0023801D02*
X0192518Y0023801D01*
X0191918Y0024401D02*
X0191918Y0023200D01*
X0187914Y0024401D02*
X0187614Y0024702D01*
X0187013Y0024702D01*
X0186713Y0024401D01*
X0186713Y0024101D01*
X0187013Y0023801D01*
X0186713Y0023501D01*
X0187013Y0023801D02*
X0187314Y0023801D01*
X0187934Y0033650D02*
X0187634Y0033950D01*
X0187634Y0035151D01*
X0187934Y0035452D01*
X0188835Y0035452D01*
X0188835Y0033650D01*
X0187934Y0033650D01*
X0189476Y0033650D02*
X0189476Y0035452D01*
X0190677Y0035452D02*
X0189476Y0033650D01*
X0190677Y0033650D02*
X0190677Y0035452D01*
X0191317Y0035151D02*
X0191617Y0035452D01*
X0192218Y0035452D01*
X0192518Y0035151D01*
X0192518Y0033950D01*
X0192218Y0033650D01*
X0191617Y0033650D01*
X0191317Y0033950D01*
X0191317Y0034551D01*
X0191918Y0034551D01*
X0184518Y0035151D02*
X0184518Y0033950D01*
X0184218Y0033650D01*
X0183617Y0033650D01*
X0183317Y0033950D01*
X0183317Y0034551D01*
X0183918Y0034551D01*
X0184518Y0035151D02*
X0184218Y0035452D01*
X0183617Y0035452D01*
X0183317Y0035151D01*
X0182677Y0035452D02*
X0181476Y0033650D01*
X0181476Y0035452D01*
X0180835Y0035452D02*
X0180835Y0033650D01*
X0179934Y0033650D01*
X0179634Y0033950D01*
X0179634Y0035151D01*
X0179934Y0035452D01*
X0180835Y0035452D01*
X0182677Y0035452D02*
X0182677Y0033650D01*
D12*
X0185718Y0032850D02*
X0183318Y0029800D01*
X0185718Y0032700D02*
X0185718Y0026000D01*
X0188168Y0029800D02*
X0185718Y0032850D01*
X0193618Y0037050D02*
X0177618Y0037050D01*
X0177618Y0021550D01*
X0178118Y0021550D02*
X0193618Y0021550D01*
X0193618Y0037050D01*
X0021500Y0180652D02*
X0021500Y0196152D01*
X0005500Y0196152D01*
X0005500Y0180652D01*
X0006000Y0180652D02*
X0021500Y0180652D01*
X0013600Y0185102D02*
X0013600Y0191802D01*
X0013600Y0191952D02*
X0016050Y0188902D01*
X0013600Y0191952D02*
X0011200Y0188902D01*
D13*
X0028918Y0187736D02*
X0028918Y0185601D01*
X0029986Y0184533D01*
X0032121Y0184533D01*
X0033188Y0185601D01*
X0033188Y0187736D01*
X0032121Y0188803D01*
X0031053Y0188803D01*
X0031053Y0184533D01*
X0028918Y0182371D02*
X0029986Y0181304D01*
X0034256Y0181304D01*
X0033188Y0182371D02*
X0033188Y0180236D01*
X0033188Y0178074D02*
X0033188Y0175939D01*
X0034256Y0177007D02*
X0029986Y0177007D01*
X0028918Y0178074D01*
X0028918Y0173777D02*
X0028918Y0171642D01*
X0028918Y0172710D02*
X0033188Y0172710D01*
X0033188Y0171642D01*
X0035324Y0172710D02*
X0036391Y0172710D01*
X0039418Y0173791D02*
X0043688Y0173791D01*
X0043688Y0176993D01*
X0042621Y0178061D01*
X0039418Y0178061D01*
X0039418Y0180236D02*
X0039418Y0182371D01*
X0039418Y0181304D02*
X0043688Y0181304D01*
X0043688Y0180236D01*
X0045824Y0181304D02*
X0046891Y0181304D01*
X0042621Y0184533D02*
X0040486Y0184533D01*
X0039418Y0185601D01*
X0039418Y0188803D01*
X0043688Y0188803D02*
X0043688Y0185601D01*
X0042621Y0184533D01*
X0033188Y0190979D02*
X0028918Y0190979D01*
X0031053Y0190979D02*
X0033188Y0193114D01*
X0033188Y0194181D01*
X0040486Y0171615D02*
X0039418Y0170548D01*
X0039418Y0168413D01*
X0040486Y0167345D01*
X0042621Y0167345D01*
X0043688Y0168413D01*
X0043688Y0170548D01*
X0042621Y0171615D01*
X0040486Y0171615D01*
X0040486Y0165170D02*
X0039418Y0164102D01*
X0039418Y0160900D01*
X0039418Y0158724D02*
X0039418Y0155522D01*
X0040486Y0154454D01*
X0041553Y0155522D01*
X0041553Y0158724D01*
X0042621Y0158724D02*
X0043688Y0157657D01*
X0043688Y0155522D01*
X0043688Y0152286D02*
X0043688Y0151218D01*
X0041553Y0149083D01*
X0039418Y0149083D02*
X0043688Y0149083D01*
X0043688Y0146921D02*
X0043688Y0144786D01*
X0044756Y0145853D02*
X0040486Y0145853D01*
X0039418Y0146921D01*
X0039418Y0142624D02*
X0039418Y0140489D01*
X0039418Y0141556D02*
X0045824Y0141556D01*
X0045824Y0140489D01*
X0046455Y0138755D02*
X0046455Y0132350D01*
X0045824Y0134043D02*
X0040486Y0134043D01*
X0039418Y0135111D01*
X0039418Y0137246D01*
X0040486Y0138314D01*
X0045824Y0138314D01*
X0046455Y0138755D02*
X0048591Y0136620D01*
X0050766Y0137688D02*
X0055036Y0133418D01*
X0053969Y0132350D01*
X0051833Y0132350D01*
X0050766Y0133418D01*
X0050766Y0137688D01*
X0051833Y0138755D01*
X0053969Y0138755D01*
X0055036Y0137688D01*
X0055036Y0133418D01*
X0057211Y0132350D02*
X0061482Y0132350D01*
X0057211Y0136620D01*
X0057211Y0137688D01*
X0058279Y0138755D01*
X0060414Y0138755D01*
X0061482Y0137688D01*
X0063657Y0137688D02*
X0063657Y0135553D01*
X0064724Y0134485D01*
X0067927Y0134485D01*
X0067927Y0132350D02*
X0067927Y0138755D01*
X0064724Y0138755D01*
X0063657Y0137688D01*
X0070102Y0137688D02*
X0070102Y0138755D01*
X0070102Y0137688D02*
X0072237Y0135553D01*
X0072237Y0132350D01*
X0072237Y0135553D02*
X0074373Y0137688D01*
X0074373Y0138755D01*
X0076548Y0138755D02*
X0080818Y0138755D01*
X0080818Y0132350D01*
X0080818Y0135553D02*
X0078683Y0135553D01*
X0078683Y0128255D02*
X0080818Y0128255D01*
X0079751Y0128255D02*
X0079751Y0121850D01*
X0080818Y0121850D02*
X0078683Y0121850D01*
X0076521Y0122918D02*
X0075454Y0123985D01*
X0072251Y0123985D01*
X0072251Y0125053D02*
X0072251Y0121850D01*
X0075454Y0121850D01*
X0076521Y0122918D01*
X0075454Y0126120D02*
X0073318Y0126120D01*
X0072251Y0125053D01*
X0070076Y0126120D02*
X0070076Y0121850D01*
X0070076Y0126120D02*
X0066873Y0126120D01*
X0065805Y0125053D01*
X0065805Y0121850D01*
X0063630Y0117755D02*
X0063630Y0111350D01*
X0065792Y0111350D02*
X0066860Y0112418D01*
X0066860Y0116688D01*
X0067927Y0115620D02*
X0065792Y0115620D01*
X0063630Y0114553D02*
X0062563Y0115620D01*
X0060427Y0115620D01*
X0059360Y0114553D01*
X0059360Y0111350D01*
X0057185Y0112418D02*
X0057185Y0114553D01*
X0056117Y0115620D01*
X0053982Y0115620D01*
X0052914Y0114553D01*
X0052914Y0113485D01*
X0057185Y0113485D01*
X0057185Y0112418D02*
X0056117Y0111350D01*
X0053982Y0111350D01*
X0050739Y0111350D02*
X0050739Y0115620D01*
X0050739Y0113485D02*
X0048604Y0115620D01*
X0047536Y0115620D01*
X0045368Y0115620D02*
X0044300Y0115620D01*
X0044300Y0111350D01*
X0043233Y0111350D02*
X0045368Y0111350D01*
X0041071Y0111350D02*
X0041071Y0115620D01*
X0037868Y0115620D01*
X0036801Y0114553D01*
X0036801Y0111350D01*
X0034625Y0112418D02*
X0034625Y0114553D01*
X0033558Y0115620D01*
X0031423Y0115620D01*
X0030355Y0114553D01*
X0030355Y0113485D01*
X0034625Y0113485D01*
X0034625Y0112418D02*
X0033558Y0111350D01*
X0031423Y0111350D01*
X0021734Y0111350D02*
X0021734Y0115620D01*
X0019599Y0117755D01*
X0017464Y0115620D01*
X0017464Y0111350D01*
X0014221Y0112418D02*
X0013154Y0111350D01*
X0014221Y0112418D02*
X0014221Y0116688D01*
X0013154Y0115620D02*
X0015289Y0115620D01*
X0017464Y0114553D02*
X0021734Y0114553D01*
X0010992Y0115620D02*
X0008857Y0115620D01*
X0009924Y0116688D02*
X0009924Y0112418D01*
X0008857Y0111350D01*
X0006695Y0112418D02*
X0005627Y0113485D01*
X0002425Y0113485D01*
X0002425Y0114553D02*
X0002425Y0111350D01*
X0005627Y0111350D01*
X0006695Y0112418D01*
X0005627Y0115620D02*
X0003492Y0115620D01*
X0002425Y0114553D01*
X0000249Y0115620D02*
X0000249Y0111350D01*
X0000249Y0113485D02*
X-0001886Y0115620D01*
X-0002953Y0115620D01*
X-0005122Y0114553D02*
X-0006189Y0115620D01*
X-0009392Y0115620D01*
X-0009392Y0117755D02*
X-0009392Y0111350D01*
X-0006189Y0111350D01*
X-0005122Y0112418D01*
X-0005122Y0114553D01*
X0015687Y0094553D02*
X0015687Y0093485D01*
X0019957Y0093485D01*
X0019957Y0092418D02*
X0019957Y0094553D01*
X0018890Y0095620D01*
X0016754Y0095620D01*
X0015687Y0094553D01*
X0016754Y0091350D02*
X0018890Y0091350D01*
X0019957Y0092418D01*
X0022119Y0091350D02*
X0024254Y0091350D01*
X0023187Y0091350D02*
X0023187Y0097755D01*
X0024254Y0097755D01*
X0026429Y0095620D02*
X0026429Y0091350D01*
X0029632Y0091350D01*
X0030700Y0092418D01*
X0030700Y0095620D01*
X0032875Y0095620D02*
X0036078Y0095620D01*
X0037145Y0094553D01*
X0037145Y0092418D01*
X0036078Y0091350D01*
X0032875Y0091350D01*
X0032875Y0097755D01*
X0039320Y0094553D02*
X0039320Y0092418D01*
X0040388Y0091350D01*
X0042523Y0091350D01*
X0043591Y0092418D01*
X0043591Y0094553D01*
X0042523Y0095620D01*
X0040388Y0095620D01*
X0039320Y0094553D01*
X0045766Y0097755D02*
X0045766Y0091350D01*
X0047901Y0095620D02*
X0045766Y0097755D01*
X0047901Y0095620D02*
X0050036Y0097755D01*
X0050036Y0091350D01*
X0058657Y0092418D02*
X0059724Y0091350D01*
X0061860Y0091350D01*
X0062927Y0092418D01*
X0062927Y0096688D01*
X0061860Y0097755D01*
X0059724Y0097755D01*
X0058657Y0096688D01*
X0065102Y0096688D02*
X0065102Y0092418D01*
X0066170Y0091350D01*
X0069373Y0091350D01*
X0069373Y0097755D01*
X0066170Y0097755D01*
X0065102Y0096688D01*
X0071548Y0095620D02*
X0071548Y0091350D01*
X0071548Y0094553D02*
X0075818Y0094553D01*
X0075818Y0095620D02*
X0073683Y0097755D01*
X0071548Y0095620D01*
X0075818Y0095620D02*
X0075818Y0091350D01*
X0089418Y0089296D02*
X0095824Y0089296D01*
X0093688Y0091431D01*
X0095824Y0093566D01*
X0089418Y0093566D01*
X0090486Y0095742D02*
X0089418Y0096809D01*
X0089418Y0098944D01*
X0090486Y0100012D01*
X0092621Y0100012D01*
X0093688Y0098944D01*
X0093688Y0096809D01*
X0092621Y0095742D01*
X0090486Y0095742D01*
X0089418Y0102187D02*
X0093688Y0102187D01*
X0093688Y0105390D01*
X0092621Y0106457D01*
X0089418Y0106457D01*
X0090486Y0108633D02*
X0089418Y0109700D01*
X0089418Y0112903D01*
X0092621Y0112903D01*
X0093688Y0111835D01*
X0093688Y0109700D01*
X0091553Y0109700D02*
X0091553Y0112903D01*
X0092621Y0115078D02*
X0093688Y0116146D01*
X0093688Y0119348D01*
X0092621Y0121524D02*
X0093688Y0122591D01*
X0093688Y0124726D01*
X0092621Y0125794D01*
X0089418Y0125794D01*
X0089418Y0121524D02*
X0095824Y0121524D01*
X0091553Y0118281D02*
X0091553Y0116146D01*
X0092621Y0115078D01*
X0089418Y0115078D02*
X0089418Y0118281D01*
X0090486Y0119348D01*
X0091553Y0118281D01*
X0091553Y0109700D02*
X0090486Y0108633D01*
X0080818Y0112418D02*
X0079751Y0111350D01*
X0077615Y0111350D01*
X0076548Y0112418D01*
X0074373Y0112418D02*
X0073305Y0113485D01*
X0070102Y0113485D01*
X0070102Y0114553D02*
X0070102Y0111350D01*
X0073305Y0111350D01*
X0074373Y0112418D01*
X0073305Y0115620D02*
X0071170Y0115620D01*
X0070102Y0114553D01*
X0076548Y0116688D02*
X0077615Y0117755D01*
X0079751Y0117755D01*
X0080818Y0116688D01*
X0080818Y0112418D01*
X0090486Y0134415D02*
X0089418Y0135482D01*
X0089418Y0137617D01*
X0090486Y0138685D01*
X0095824Y0138685D01*
X0093688Y0140860D02*
X0093688Y0144063D01*
X0092621Y0145130D01*
X0089418Y0145130D01*
X0089418Y0147306D02*
X0089418Y0149441D01*
X0089418Y0148373D02*
X0093688Y0148373D01*
X0093688Y0147306D01*
X0095824Y0148373D02*
X0096891Y0148373D01*
X0093688Y0151603D02*
X0089418Y0153738D01*
X0093688Y0155873D01*
X0092621Y0158048D02*
X0093688Y0159116D01*
X0093688Y0161251D01*
X0092621Y0162318D01*
X0091553Y0162318D01*
X0091553Y0158048D01*
X0090486Y0158048D02*
X0092621Y0158048D01*
X0090486Y0158048D02*
X0089418Y0159116D01*
X0089418Y0161251D01*
X0089418Y0164494D02*
X0093688Y0164494D01*
X0093688Y0166629D02*
X0093688Y0167696D01*
X0093688Y0166629D02*
X0091553Y0164494D01*
X0092621Y0169865D02*
X0091553Y0170932D01*
X0091553Y0173068D01*
X0090486Y0174135D01*
X0089418Y0173068D01*
X0089418Y0169865D01*
X0092621Y0169865D02*
X0093688Y0170932D01*
X0093688Y0174135D01*
X0093688Y0176310D02*
X0093688Y0177378D01*
X0089418Y0177378D01*
X0089418Y0178445D02*
X0089418Y0176310D01*
X0090486Y0181675D02*
X0089418Y0182742D01*
X0090486Y0181675D02*
X0094756Y0181675D01*
X0093688Y0182742D02*
X0093688Y0180607D01*
X0095824Y0177378D02*
X0096891Y0177378D01*
X0093688Y0184904D02*
X0090486Y0184904D01*
X0089418Y0185972D01*
X0089418Y0189175D01*
X0088351Y0189175D02*
X0087283Y0188107D01*
X0087283Y0187039D01*
X0088351Y0189175D02*
X0093688Y0189175D01*
X0093688Y0140860D02*
X0089418Y0140860D01*
X0090486Y0134415D02*
X0095824Y0134415D01*
X0105351Y0106229D02*
X0104283Y0105161D01*
X0104283Y0104093D01*
X0106418Y0103026D02*
X0106418Y0106229D01*
X0105351Y0106229D02*
X0110688Y0106229D01*
X0110688Y0101958D02*
X0107486Y0101958D01*
X0106418Y0103026D01*
X0106418Y0099796D02*
X0107486Y0098729D01*
X0111756Y0098729D01*
X0110688Y0099796D02*
X0110688Y0097661D01*
X0110688Y0094432D02*
X0106418Y0094432D01*
X0106418Y0095499D02*
X0106418Y0093364D01*
X0107486Y0091189D02*
X0108553Y0090121D01*
X0108553Y0087986D01*
X0109621Y0086919D01*
X0110688Y0087986D01*
X0110688Y0091189D01*
X0110688Y0093364D02*
X0110688Y0094432D01*
X0112824Y0094432D02*
X0113891Y0094432D01*
X0116754Y0101350D02*
X0118890Y0101350D01*
X0119957Y0102418D01*
X0119957Y0104553D01*
X0118890Y0105620D01*
X0116754Y0105620D01*
X0115687Y0104553D01*
X0115687Y0103485D01*
X0119957Y0103485D01*
X0122119Y0101350D02*
X0124254Y0101350D01*
X0123187Y0101350D02*
X0123187Y0107755D01*
X0124254Y0107755D01*
X0126429Y0105620D02*
X0126429Y0101350D01*
X0129632Y0101350D01*
X0130700Y0102418D01*
X0130700Y0105620D01*
X0132875Y0105620D02*
X0136078Y0105620D01*
X0137145Y0104553D01*
X0137145Y0102418D01*
X0136078Y0101350D01*
X0132875Y0101350D01*
X0132875Y0107755D01*
X0139320Y0104553D02*
X0139320Y0102418D01*
X0140388Y0101350D01*
X0142523Y0101350D01*
X0143591Y0102418D01*
X0143591Y0104553D01*
X0142523Y0105620D01*
X0140388Y0105620D01*
X0139320Y0104553D01*
X0145766Y0107755D02*
X0145766Y0101350D01*
X0150036Y0101350D02*
X0150036Y0107755D01*
X0147901Y0105620D01*
X0145766Y0107755D01*
X0158657Y0106688D02*
X0159724Y0107755D01*
X0161860Y0107755D01*
X0162927Y0106688D01*
X0162927Y0102418D01*
X0161860Y0101350D01*
X0159724Y0101350D01*
X0158657Y0102418D01*
X0165102Y0102418D02*
X0165102Y0106688D01*
X0166170Y0107755D01*
X0169373Y0107755D01*
X0169373Y0101350D01*
X0166170Y0101350D01*
X0165102Y0102418D01*
X0171548Y0101350D02*
X0171548Y0105620D01*
X0173683Y0107755D01*
X0175818Y0105620D01*
X0175818Y0101350D01*
X0175818Y0104553D02*
X0171548Y0104553D01*
X0172927Y0088755D02*
X0169724Y0088755D01*
X0168657Y0087688D01*
X0168657Y0085553D01*
X0169724Y0084485D01*
X0172927Y0084485D01*
X0172927Y0082350D02*
X0172927Y0088755D01*
X0175102Y0088755D02*
X0175102Y0087688D01*
X0177237Y0085553D01*
X0177237Y0082350D01*
X0177237Y0085553D02*
X0179373Y0087688D01*
X0179373Y0088755D01*
X0181548Y0088755D02*
X0185818Y0088755D01*
X0185818Y0082350D01*
X0185818Y0085553D02*
X0183683Y0085553D01*
X0183683Y0078255D02*
X0185818Y0078255D01*
X0184751Y0078255D02*
X0184751Y0071850D01*
X0185818Y0071850D02*
X0183683Y0071850D01*
X0181521Y0072918D02*
X0180454Y0073985D01*
X0177251Y0073985D01*
X0177251Y0075053D02*
X0177251Y0071850D01*
X0180454Y0071850D01*
X0181521Y0072918D01*
X0180454Y0076120D02*
X0178318Y0076120D01*
X0177251Y0075053D01*
X0175076Y0076120D02*
X0171873Y0076120D01*
X0170805Y0075053D01*
X0170805Y0071850D01*
X0175076Y0071850D02*
X0175076Y0076120D01*
X0166482Y0082350D02*
X0162211Y0086620D01*
X0162211Y0087688D01*
X0163279Y0088755D01*
X0165414Y0088755D01*
X0166482Y0087688D01*
X0166482Y0082350D02*
X0162211Y0082350D01*
X0160036Y0083418D02*
X0155766Y0087688D01*
X0155766Y0083418D01*
X0156833Y0082350D01*
X0158969Y0082350D01*
X0160036Y0083418D01*
X0160036Y0087688D01*
X0158969Y0088755D01*
X0156833Y0088755D01*
X0155766Y0087688D01*
X0153591Y0086620D02*
X0151455Y0088755D01*
X0151455Y0082350D01*
X0149320Y0082350D02*
X0153591Y0082350D01*
X0157914Y0078255D02*
X0157914Y0071850D01*
X0155739Y0072918D02*
X0154672Y0071850D01*
X0151469Y0071850D01*
X0151469Y0076120D01*
X0148226Y0076120D02*
X0146091Y0076120D01*
X0145023Y0075053D01*
X0145023Y0071850D01*
X0148226Y0071850D01*
X0149294Y0072918D01*
X0148226Y0073985D01*
X0145023Y0073985D01*
X0149300Y0068823D02*
X0149300Y0067755D01*
X0149300Y0065620D02*
X0149300Y0061350D01*
X0148233Y0061350D02*
X0150368Y0061350D01*
X0151918Y0060042D02*
X0151918Y0057907D01*
X0152986Y0056840D01*
X0155121Y0056840D01*
X0156188Y0057907D01*
X0156188Y0060042D01*
X0155121Y0061110D01*
X0154053Y0061110D01*
X0154053Y0056840D01*
X0151918Y0054678D02*
X0152986Y0053610D01*
X0157256Y0053610D01*
X0156188Y0052543D02*
X0156188Y0054678D01*
X0156188Y0050381D02*
X0156188Y0048246D01*
X0157256Y0049313D02*
X0152986Y0049313D01*
X0151918Y0050381D01*
X0151918Y0046084D02*
X0151918Y0043949D01*
X0151918Y0045016D02*
X0156188Y0045016D01*
X0156188Y0043949D01*
X0158324Y0045016D02*
X0159391Y0045016D01*
X0162418Y0046097D02*
X0166688Y0046097D01*
X0166688Y0049300D01*
X0165621Y0050368D01*
X0162418Y0050368D01*
X0162418Y0052543D02*
X0162418Y0054678D01*
X0162418Y0053610D02*
X0166688Y0053610D01*
X0166688Y0052543D01*
X0168824Y0053610D02*
X0169891Y0053610D01*
X0165621Y0056840D02*
X0163486Y0056840D01*
X0162418Y0057907D01*
X0162418Y0061110D01*
X0161117Y0061350D02*
X0162185Y0062418D01*
X0162185Y0064553D01*
X0161117Y0065620D01*
X0158982Y0065620D01*
X0157914Y0064553D01*
X0157914Y0063485D01*
X0162185Y0063485D01*
X0161117Y0061350D02*
X0158982Y0061350D01*
X0155739Y0061350D02*
X0155739Y0065620D01*
X0156188Y0065420D02*
X0156188Y0066488D01*
X0156188Y0065420D02*
X0154053Y0063285D01*
X0155739Y0063485D02*
X0153604Y0065620D01*
X0152536Y0065620D01*
X0150368Y0065620D02*
X0149300Y0065620D01*
X0146071Y0065620D02*
X0142868Y0065620D01*
X0141801Y0064553D01*
X0141801Y0061350D01*
X0139625Y0062418D02*
X0139625Y0064553D01*
X0138558Y0065620D01*
X0136423Y0065620D01*
X0135355Y0064553D01*
X0135355Y0063485D01*
X0139625Y0063485D01*
X0139625Y0062418D02*
X0138558Y0061350D01*
X0136423Y0061350D01*
X0146071Y0061350D02*
X0146071Y0065620D01*
X0151918Y0063285D02*
X0156188Y0063285D01*
X0164360Y0064553D02*
X0164360Y0061350D01*
X0166688Y0061110D02*
X0166688Y0057907D01*
X0165621Y0056840D01*
X0168630Y0061350D02*
X0168630Y0067755D01*
X0167563Y0065620D02*
X0165427Y0065620D01*
X0164360Y0064553D01*
X0167563Y0065620D02*
X0168630Y0064553D01*
X0170792Y0065620D02*
X0172927Y0065620D01*
X0171860Y0066688D02*
X0171860Y0062418D01*
X0170792Y0061350D01*
X0175102Y0061350D02*
X0175102Y0064553D01*
X0176170Y0065620D01*
X0178305Y0065620D01*
X0178305Y0063485D02*
X0175102Y0063485D01*
X0175102Y0061350D02*
X0178305Y0061350D01*
X0179373Y0062418D01*
X0178305Y0063485D01*
X0181548Y0062418D02*
X0182615Y0061350D01*
X0184751Y0061350D01*
X0185818Y0062418D01*
X0185818Y0066688D01*
X0184751Y0067755D01*
X0182615Y0067755D01*
X0181548Y0066688D01*
X0162185Y0071850D02*
X0162185Y0078255D01*
X0162185Y0075053D02*
X0157914Y0075053D01*
X0155739Y0076120D02*
X0155739Y0072918D01*
X0146078Y0082350D02*
X0147145Y0083418D01*
X0146078Y0082350D02*
X0143942Y0082350D01*
X0142875Y0083418D01*
X0142875Y0085553D01*
X0143942Y0086620D01*
X0145010Y0086620D01*
X0147145Y0085553D01*
X0147145Y0088755D01*
X0142875Y0088755D01*
X0124599Y0067755D02*
X0122464Y0065620D01*
X0122464Y0061350D01*
X0122464Y0064553D02*
X0126734Y0064553D01*
X0126734Y0065620D02*
X0124599Y0067755D01*
X0126734Y0065620D02*
X0126734Y0061350D01*
X0120289Y0065620D02*
X0118154Y0065620D01*
X0119221Y0066688D02*
X0119221Y0062418D01*
X0118154Y0061350D01*
X0114924Y0062418D02*
X0113857Y0061350D01*
X0114924Y0062418D02*
X0114924Y0066688D01*
X0113857Y0065620D02*
X0115992Y0065620D01*
X0113891Y0065427D02*
X0112824Y0065427D01*
X0110688Y0065427D02*
X0106418Y0065427D01*
X0106418Y0064359D02*
X0106418Y0066495D01*
X0105249Y0065620D02*
X0105249Y0061350D01*
X0106418Y0062184D02*
X0109621Y0062184D01*
X0110688Y0061117D01*
X0110688Y0057914D01*
X0106418Y0057914D01*
X0107425Y0061350D02*
X0110627Y0061350D01*
X0111695Y0062418D01*
X0110627Y0063485D01*
X0107425Y0063485D01*
X0107425Y0064553D02*
X0107425Y0061350D01*
X0105249Y0063485D02*
X0103114Y0065620D01*
X0102047Y0065620D01*
X0099878Y0064553D02*
X0099878Y0062418D01*
X0098811Y0061350D01*
X0095608Y0061350D01*
X0095608Y0067755D01*
X0095608Y0065620D02*
X0098811Y0065620D01*
X0099878Y0064553D01*
X0107425Y0064553D02*
X0108492Y0065620D01*
X0110627Y0065620D01*
X0110688Y0065427D02*
X0110688Y0064359D01*
X0110688Y0068656D02*
X0106418Y0070792D01*
X0110688Y0072927D01*
X0109621Y0075102D02*
X0110688Y0076170D01*
X0110688Y0078305D01*
X0109621Y0079372D01*
X0108553Y0079372D01*
X0108553Y0075102D01*
X0107486Y0075102D02*
X0106418Y0076170D01*
X0106418Y0078305D01*
X0106418Y0081547D02*
X0110688Y0081547D01*
X0108553Y0081547D02*
X0110688Y0083683D01*
X0110688Y0084750D01*
X0106418Y0086919D02*
X0106418Y0090121D01*
X0107486Y0091189D01*
X0107486Y0075102D02*
X0109621Y0075102D01*
X0107486Y0055739D02*
X0112824Y0055739D01*
X0112824Y0051468D02*
X0107486Y0051468D01*
X0106418Y0052536D01*
X0106418Y0054671D01*
X0107486Y0055739D01*
X0106418Y0042848D02*
X0109621Y0042848D01*
X0110688Y0041780D01*
X0110688Y0039645D01*
X0109621Y0038577D01*
X0110688Y0036402D02*
X0110688Y0033200D01*
X0109621Y0032132D01*
X0108553Y0033200D01*
X0108553Y0035335D01*
X0107486Y0036402D01*
X0106418Y0035335D01*
X0106418Y0032132D01*
X0106418Y0029957D02*
X0106418Y0026754D01*
X0107486Y0025686D01*
X0108553Y0026754D01*
X0108553Y0029957D01*
X0109621Y0029957D02*
X0110688Y0028889D01*
X0110688Y0026754D01*
X0109621Y0029957D02*
X0106418Y0029957D01*
X0106418Y0023511D02*
X0109621Y0023511D01*
X0110688Y0022444D01*
X0110688Y0019241D01*
X0106418Y0019241D01*
X0107486Y0017066D02*
X0109621Y0017066D01*
X0110688Y0015998D01*
X0110688Y0013863D01*
X0109621Y0012795D01*
X0107486Y0012795D01*
X0106418Y0013863D01*
X0106418Y0015998D01*
X0107486Y0017066D01*
X0106418Y0010620D02*
X0112824Y0010620D01*
X0110688Y0008485D01*
X0112824Y0006350D01*
X0106418Y0006350D01*
X0106418Y0038577D02*
X0112824Y0038577D01*
X0151918Y0039638D02*
X0155121Y0039638D01*
X0156188Y0040706D01*
X0155121Y0041774D01*
X0151918Y0041774D01*
X0155121Y0039638D02*
X0156188Y0038571D01*
X0156188Y0037503D01*
X0151918Y0037503D01*
X0152986Y0035328D02*
X0154053Y0034260D01*
X0154053Y0032125D01*
X0155121Y0031058D01*
X0156188Y0032125D01*
X0156188Y0035328D01*
X0152986Y0035328D02*
X0151918Y0034260D01*
X0151918Y0031058D01*
X0151918Y0028883D02*
X0155121Y0028883D01*
X0156188Y0027815D01*
X0156188Y0024612D01*
X0151918Y0024612D01*
X0151918Y0022437D02*
X0151918Y0019234D01*
X0152986Y0018167D01*
X0154053Y0019234D01*
X0154053Y0022437D01*
X0155121Y0022437D02*
X0151918Y0022437D01*
X0155121Y0022437D02*
X0156188Y0021369D01*
X0156188Y0019234D01*
X0156188Y0015998D02*
X0156188Y0014931D01*
X0154053Y0012795D01*
X0151918Y0012795D02*
X0156188Y0012795D01*
X0158324Y0010620D02*
X0158324Y0006350D01*
X0158324Y0008485D02*
X0151918Y0008485D01*
X0162418Y0007418D02*
X0162418Y0009553D01*
X0163486Y0010620D01*
X0168824Y0010620D01*
X0168824Y0012795D02*
X0168824Y0013863D01*
X0162418Y0013863D01*
X0162418Y0012795D02*
X0162418Y0014931D01*
X0163486Y0018160D02*
X0162418Y0019228D01*
X0163486Y0018160D02*
X0167756Y0018160D01*
X0166688Y0017092D02*
X0166688Y0019228D01*
X0166688Y0021389D02*
X0162418Y0021389D01*
X0164553Y0021389D02*
X0166688Y0023525D01*
X0166688Y0024592D01*
X0166688Y0027828D02*
X0166688Y0029963D01*
X0165621Y0031031D01*
X0162418Y0031031D01*
X0162418Y0027828D01*
X0163486Y0026761D01*
X0164553Y0027828D01*
X0164553Y0031031D01*
X0165621Y0033206D02*
X0166688Y0034274D01*
X0166688Y0037477D01*
X0164553Y0036409D02*
X0164553Y0034274D01*
X0165621Y0033206D01*
X0162418Y0033206D02*
X0162418Y0036409D01*
X0163486Y0037477D01*
X0164553Y0036409D01*
X0163486Y0039652D02*
X0162418Y0040719D01*
X0162418Y0042854D01*
X0163486Y0043922D01*
X0165621Y0043922D01*
X0166688Y0042854D01*
X0166688Y0040719D01*
X0165621Y0039652D01*
X0163486Y0039652D01*
X0162418Y0007418D02*
X0163486Y0006350D01*
X0168824Y0006350D01*
X0057185Y0121850D02*
X0057185Y0128255D01*
X0057185Y0125053D02*
X0052914Y0125053D01*
X0050739Y0126120D02*
X0050739Y0122918D01*
X0049672Y0121850D01*
X0046469Y0121850D01*
X0046469Y0126120D01*
X0043226Y0126120D02*
X0041091Y0126120D01*
X0040023Y0125053D01*
X0040023Y0121850D01*
X0043226Y0121850D01*
X0044294Y0122918D01*
X0043226Y0123985D01*
X0040023Y0123985D01*
X0044300Y0118823D02*
X0044300Y0117755D01*
X0052914Y0121850D02*
X0052914Y0128255D01*
X0048591Y0132350D02*
X0044320Y0132350D01*
X0042145Y0133418D02*
X0041078Y0132350D01*
X0038942Y0132350D01*
X0037875Y0133418D01*
X0037875Y0135553D01*
X0038942Y0136620D01*
X0040010Y0136620D01*
X0042145Y0135553D01*
X0042145Y0138755D01*
X0037875Y0138755D01*
X0035324Y0138314D02*
X0035324Y0134043D01*
X0035324Y0136179D02*
X0028918Y0136179D01*
X0028918Y0140489D02*
X0033188Y0140489D01*
X0031053Y0140489D02*
X0033188Y0142624D01*
X0033188Y0143692D01*
X0033188Y0146928D02*
X0033188Y0149063D01*
X0032121Y0150130D01*
X0028918Y0150130D01*
X0028918Y0146928D01*
X0029986Y0145860D01*
X0031053Y0146928D01*
X0031053Y0150130D01*
X0028918Y0152306D02*
X0033188Y0152306D01*
X0033188Y0155508D01*
X0032121Y0156576D01*
X0028918Y0156576D01*
X0028918Y0158751D02*
X0028918Y0161954D01*
X0029986Y0163021D01*
X0031053Y0161954D01*
X0031053Y0159819D01*
X0032121Y0158751D01*
X0033188Y0159819D01*
X0033188Y0163021D01*
X0033188Y0165197D02*
X0033188Y0166264D01*
X0032121Y0167332D01*
X0033188Y0168399D01*
X0032121Y0169467D01*
X0028918Y0169467D01*
X0028918Y0167332D02*
X0032121Y0167332D01*
X0033188Y0165197D02*
X0028918Y0165197D01*
X0039418Y0158724D02*
X0042621Y0158724D01*
X0042621Y0160900D02*
X0043688Y0161967D01*
X0043688Y0165170D01*
X0041553Y0164102D02*
X0041553Y0161967D01*
X0042621Y0160900D01*
X0041553Y0164102D02*
X0040486Y0165170D01*
D14*
X0145118Y0151550D02*
X0145118Y0132550D01*
X0161618Y0132550D01*
X0161618Y0151550D01*
X0145118Y0151550D01*
X0158118Y0149550D02*
X0158120Y0149613D01*
X0158126Y0149675D01*
X0158136Y0149737D01*
X0158149Y0149799D01*
X0158167Y0149859D01*
X0158188Y0149918D01*
X0158213Y0149976D01*
X0158242Y0150032D01*
X0158274Y0150086D01*
X0158309Y0150138D01*
X0158347Y0150187D01*
X0158389Y0150235D01*
X0158433Y0150279D01*
X0158481Y0150321D01*
X0158530Y0150359D01*
X0158582Y0150394D01*
X0158636Y0150426D01*
X0158692Y0150455D01*
X0158750Y0150480D01*
X0158809Y0150501D01*
X0158869Y0150519D01*
X0158931Y0150532D01*
X0158993Y0150542D01*
X0159055Y0150548D01*
X0159118Y0150550D01*
X0159181Y0150548D01*
X0159243Y0150542D01*
X0159305Y0150532D01*
X0159367Y0150519D01*
X0159427Y0150501D01*
X0159486Y0150480D01*
X0159544Y0150455D01*
X0159600Y0150426D01*
X0159654Y0150394D01*
X0159706Y0150359D01*
X0159755Y0150321D01*
X0159803Y0150279D01*
X0159847Y0150235D01*
X0159889Y0150187D01*
X0159927Y0150138D01*
X0159962Y0150086D01*
X0159994Y0150032D01*
X0160023Y0149976D01*
X0160048Y0149918D01*
X0160069Y0149859D01*
X0160087Y0149799D01*
X0160100Y0149737D01*
X0160110Y0149675D01*
X0160116Y0149613D01*
X0160118Y0149550D01*
X0160116Y0149487D01*
X0160110Y0149425D01*
X0160100Y0149363D01*
X0160087Y0149301D01*
X0160069Y0149241D01*
X0160048Y0149182D01*
X0160023Y0149124D01*
X0159994Y0149068D01*
X0159962Y0149014D01*
X0159927Y0148962D01*
X0159889Y0148913D01*
X0159847Y0148865D01*
X0159803Y0148821D01*
X0159755Y0148779D01*
X0159706Y0148741D01*
X0159654Y0148706D01*
X0159600Y0148674D01*
X0159544Y0148645D01*
X0159486Y0148620D01*
X0159427Y0148599D01*
X0159367Y0148581D01*
X0159305Y0148568D01*
X0159243Y0148558D01*
X0159181Y0148552D01*
X0159118Y0148550D01*
X0159055Y0148552D01*
X0158993Y0148558D01*
X0158931Y0148568D01*
X0158869Y0148581D01*
X0158809Y0148599D01*
X0158750Y0148620D01*
X0158692Y0148645D01*
X0158636Y0148674D01*
X0158582Y0148706D01*
X0158530Y0148741D01*
X0158481Y0148779D01*
X0158433Y0148821D01*
X0158389Y0148865D01*
X0158347Y0148913D01*
X0158309Y0148962D01*
X0158274Y0149014D01*
X0158242Y0149068D01*
X0158213Y0149124D01*
X0158188Y0149182D01*
X0158167Y0149241D01*
X0158149Y0149301D01*
X0158136Y0149363D01*
X0158126Y0149425D01*
X0158120Y0149487D01*
X0158118Y0149550D01*
X0062118Y0040550D02*
X0062118Y0021550D01*
X0045618Y0021550D01*
X0045618Y0040550D01*
X0062118Y0040550D01*
X0058618Y0038550D02*
X0058620Y0038613D01*
X0058626Y0038675D01*
X0058636Y0038737D01*
X0058649Y0038799D01*
X0058667Y0038859D01*
X0058688Y0038918D01*
X0058713Y0038976D01*
X0058742Y0039032D01*
X0058774Y0039086D01*
X0058809Y0039138D01*
X0058847Y0039187D01*
X0058889Y0039235D01*
X0058933Y0039279D01*
X0058981Y0039321D01*
X0059030Y0039359D01*
X0059082Y0039394D01*
X0059136Y0039426D01*
X0059192Y0039455D01*
X0059250Y0039480D01*
X0059309Y0039501D01*
X0059369Y0039519D01*
X0059431Y0039532D01*
X0059493Y0039542D01*
X0059555Y0039548D01*
X0059618Y0039550D01*
X0059681Y0039548D01*
X0059743Y0039542D01*
X0059805Y0039532D01*
X0059867Y0039519D01*
X0059927Y0039501D01*
X0059986Y0039480D01*
X0060044Y0039455D01*
X0060100Y0039426D01*
X0060154Y0039394D01*
X0060206Y0039359D01*
X0060255Y0039321D01*
X0060303Y0039279D01*
X0060347Y0039235D01*
X0060389Y0039187D01*
X0060427Y0039138D01*
X0060462Y0039086D01*
X0060494Y0039032D01*
X0060523Y0038976D01*
X0060548Y0038918D01*
X0060569Y0038859D01*
X0060587Y0038799D01*
X0060600Y0038737D01*
X0060610Y0038675D01*
X0060616Y0038613D01*
X0060618Y0038550D01*
X0060616Y0038487D01*
X0060610Y0038425D01*
X0060600Y0038363D01*
X0060587Y0038301D01*
X0060569Y0038241D01*
X0060548Y0038182D01*
X0060523Y0038124D01*
X0060494Y0038068D01*
X0060462Y0038014D01*
X0060427Y0037962D01*
X0060389Y0037913D01*
X0060347Y0037865D01*
X0060303Y0037821D01*
X0060255Y0037779D01*
X0060206Y0037741D01*
X0060154Y0037706D01*
X0060100Y0037674D01*
X0060044Y0037645D01*
X0059986Y0037620D01*
X0059927Y0037599D01*
X0059867Y0037581D01*
X0059805Y0037568D01*
X0059743Y0037558D01*
X0059681Y0037552D01*
X0059618Y0037550D01*
X0059555Y0037552D01*
X0059493Y0037558D01*
X0059431Y0037568D01*
X0059369Y0037581D01*
X0059309Y0037599D01*
X0059250Y0037620D01*
X0059192Y0037645D01*
X0059136Y0037674D01*
X0059082Y0037706D01*
X0059030Y0037741D01*
X0058981Y0037779D01*
X0058933Y0037821D01*
X0058889Y0037865D01*
X0058847Y0037913D01*
X0058809Y0037962D01*
X0058774Y0038014D01*
X0058742Y0038068D01*
X0058713Y0038124D01*
X0058688Y0038182D01*
X0058667Y0038241D01*
X0058649Y0038301D01*
X0058636Y0038363D01*
X0058626Y0038425D01*
X0058620Y0038487D01*
X0058618Y0038550D01*
M02*
