G75*
%MOIN*%
%OFA0B0*%
%FSLAX25Y25*%
%IPPOS*%
%LPD*%
%AMOC8*
5,1,8,0,0,1.08239X$1,22.5*
%
%ADD10C,0.00000*%
%ADD11R,0.04737X0.05131*%
%ADD12R,0.05131X0.04737*%
%ADD13R,0.05918X0.06706*%
%ADD14C,0.06800*%
%ADD15R,0.07099X0.07898*%
%ADD16R,0.04934X0.02414*%
%ADD17OC8,0.06800*%
%ADD18C,0.04800*%
D10*
X0001118Y0001050D02*
X0197969Y0001050D01*
X0197969Y0197900D01*
X0001118Y0197900D01*
X0001118Y0001050D01*
X0197969Y0001050D01*
X0197969Y0197900D01*
X0001020Y0197959D01*
X0001118Y0001050D01*
X0001618Y0001550D02*
X0001618Y0086550D01*
X0098118Y0086550D01*
X0098118Y0001550D01*
X0001618Y0001550D01*
X0101118Y0112550D02*
X0101118Y0197550D01*
X0197618Y0197550D01*
X0197618Y0112550D01*
X0101118Y0112550D01*
X0173618Y0038261D02*
X0173618Y0001550D01*
X0197569Y0001550D01*
X0197569Y0038261D01*
X0173618Y0038261D01*
X0025451Y0160652D02*
X0025451Y0197363D01*
X0001500Y0197363D01*
X0001500Y0160652D01*
X0025451Y0160652D01*
D11*
X0080618Y0081896D03*
X0080618Y0075204D03*
X0070618Y0031896D03*
X0070618Y0025204D03*
X0170118Y0136204D03*
X0170118Y0142896D03*
X0180118Y0186204D03*
X0180118Y0192896D03*
D12*
X0134465Y0180550D03*
X0127772Y0180550D03*
X0131772Y0134550D03*
X0138465Y0134550D03*
X0171772Y0119550D03*
X0178465Y0119550D03*
X0078965Y0008550D03*
X0072272Y0008550D03*
X0038965Y0023550D03*
X0032272Y0023550D03*
X0034965Y0069550D03*
X0028272Y0069550D03*
D13*
X0025378Y0058550D03*
X0032858Y0058550D03*
X0124878Y0169550D03*
X0132358Y0169550D03*
D14*
X0112118Y0169550D02*
X0106118Y0169550D01*
X0106118Y0159550D02*
X0112118Y0159550D01*
X0112118Y0149550D02*
X0106118Y0149550D01*
X0106118Y0139550D02*
X0112118Y0139550D01*
X0112118Y0129550D02*
X0106118Y0129550D01*
X0106118Y0119550D02*
X0112118Y0119550D01*
X0093618Y0078550D02*
X0087618Y0078550D01*
X0087618Y0068550D02*
X0093618Y0068550D01*
X0093618Y0058550D02*
X0087618Y0058550D01*
X0087618Y0048550D02*
X0093618Y0048550D01*
X0093618Y0038550D02*
X0087618Y0038550D01*
X0087618Y0028550D02*
X0093618Y0028550D01*
X0093618Y0018550D02*
X0087618Y0018550D01*
X0087618Y0008550D02*
X0093618Y0008550D01*
X0012618Y0008550D02*
X0006618Y0008550D01*
X0006618Y0018550D02*
X0012618Y0018550D01*
X0012618Y0028550D02*
X0006618Y0028550D01*
X0006618Y0038550D02*
X0012618Y0038550D01*
X0012618Y0048550D02*
X0006618Y0048550D01*
X0006618Y0058550D02*
X0012618Y0058550D01*
X0012618Y0068550D02*
X0006618Y0068550D01*
X0006618Y0078550D02*
X0012618Y0078550D01*
X0106118Y0179550D02*
X0112118Y0179550D01*
X0112118Y0189550D02*
X0106118Y0189550D01*
X0187118Y0189550D02*
X0193118Y0189550D01*
X0193118Y0179550D02*
X0187118Y0179550D01*
X0187118Y0169550D02*
X0193118Y0169550D01*
X0193118Y0159550D02*
X0187118Y0159550D01*
X0187118Y0149550D02*
X0193118Y0149550D01*
X0193118Y0139550D02*
X0187118Y0139550D01*
X0187118Y0129550D02*
X0193118Y0129550D01*
X0193118Y0119550D02*
X0187118Y0119550D01*
D15*
X0160717Y0119550D03*
X0149520Y0119550D03*
X0139717Y0119550D03*
X0128520Y0119550D03*
X0061217Y0008550D03*
X0050020Y0008550D03*
X0040217Y0008550D03*
X0029020Y0008550D03*
D16*
X0044130Y0023550D03*
X0044130Y0028550D03*
X0044130Y0033550D03*
X0044130Y0038550D03*
X0063618Y0038550D03*
X0063618Y0033550D03*
X0063618Y0028550D03*
X0063618Y0023550D03*
X0143630Y0134550D03*
X0143630Y0139550D03*
X0143630Y0144550D03*
X0143630Y0149550D03*
X0163118Y0149550D03*
X0163118Y0144550D03*
X0163118Y0139550D03*
X0163118Y0134550D03*
D17*
X0180618Y0015050D03*
X0180618Y0005050D03*
X0190618Y0005050D03*
X0190618Y0015050D03*
X0018500Y0164152D03*
X0008500Y0164152D03*
X0008500Y0174152D03*
X0018500Y0174152D03*
D18*
X0046818Y0078750D03*
X0047418Y0073950D03*
X0047418Y0068750D03*
X0052418Y0063850D03*
X0059018Y0061950D03*
X0059018Y0067450D03*
X0059018Y0072250D03*
X0054018Y0076550D03*
X0068818Y0070550D03*
X0072218Y0067150D03*
X0068718Y0063850D03*
X0069218Y0057250D03*
X0079818Y0053350D03*
X0065318Y0045050D03*
X0055318Y0051850D03*
X0051518Y0045450D03*
X0038218Y0046950D03*
X0035418Y0064750D03*
X0025818Y0064750D03*
X0018418Y0070450D03*
X0035418Y0074350D03*
X0074318Y0073850D03*
X0122518Y0122750D03*
X0119218Y0126250D03*
X0122518Y0140250D03*
X0137718Y0157950D03*
X0151018Y0156450D03*
X0154818Y0162850D03*
X0158518Y0172950D03*
X0158518Y0178450D03*
X0158518Y0183250D03*
X0153518Y0187550D03*
X0146918Y0184950D03*
X0146918Y0179750D03*
X0151918Y0174850D03*
X0146318Y0189750D03*
X0134918Y0185350D03*
X0134918Y0175750D03*
X0125318Y0175750D03*
X0117918Y0181450D03*
X0164818Y0156050D03*
X0168718Y0168250D03*
X0168218Y0174850D03*
X0171718Y0178150D03*
X0168318Y0181550D03*
X0173818Y0184850D03*
X0179318Y0164350D03*
X0149618Y0131050D03*
X0144218Y0125650D03*
X0174918Y0124150D03*
X0075418Y0013150D03*
X0050118Y0020050D03*
X0044718Y0014650D03*
X0023018Y0011750D03*
X0019718Y0015250D03*
X0023018Y0029250D03*
M02*
